PathFileType	4	(X/Y/Z)	Patient4_TMGait_0pt4_01_left_43.trc.trc
DataRate	CameraRate	NumFrames	NumMarkers	Units	OrigDataRate	OrigDataStartFrame	OrigNumFrames
74.866310160428	74.866310160428	5	33	mm	74.866310160428	71	       141
Frame#	Time	Sacral			L.Shoulder			Chest			R.Shoulder			Neck			R.ASIS			L.ASIS			R.Thigh.Superior			R.Thigh.Lateral			R.Thigh.Inferior			R.Patella			L.Thigh.Superior			L.Thigh.Lateral			L.Thigh.Inferior			L.Patella			L.Shank.Superior			L.Shank.Lateral			L.Shank.Inferior			R.Shank.Superior			R.Shank.Lateral			R.Shank.Inferior			R.Heel			R.Midfoot.Superior			R.Midfoot.Lateral			R.Toe			L.Heel			L.Midfoot.Lateral			L.Midfoot.Superior			L.Toe			L.Elbow			L.Wrist			R.Elbow			R.Wrist			
		X1	Y1	Z1	X2	Y2	Z2	X3	Y3	Z3	X4	Y4	Z4	X5	Y5	Z5	X6	Y6	Z6	X7	Y7	Z7	X8	Y8	Z8	X9	Y9	Z9	X10	Y10	Z10	X11	Y11	Z11	X12	Y12	Z12	X13	Y13	Z13	X14	Y14	Z14	X15	Y15	Z15	X16	Y16	Z16	X17	Y17	Z17	X18	Y18	Z18	X19	Y19	Z19	X20	Y20	Z20	X21	Y21	Z21	X22	Y22	Z22	X23	Y23	Z23	X24	Y24	Z24	X25	Y25	Z25	X26	Y26	Z26	X27	Y27	Z27	X28	Y28	Z28	X29	Y29	Z29	X30	Y30	Z30	X31	Y31	Z31	X32	Y32	Z32	X33	Y33	Z33	

71	55.035000000000	859.184604993809	1009.534386392823	414.939946566264	1078.569186920127	1431.717826886495	242.907814695972	1153.586390103014	1366.083514327995	418.685255584992	1046.167817760737	1444.861429258090	576.383262598482	1038.639886407308	1497.067971992254	395.335300597800	1073.596708365537	951.185708946795	561.097021298982	1090.650016407874	958.885676844517	285.862419681861	1140.166855508847	763.498154647791	540.396170592678	1083.278453142870	649.030621193681	612.187679665532	1167.972287480202	603.506889907996	533.015489851921	1195.294549925643	525.860488814440	549.529509251560	1103.484046050357	734.720870888995	322.674519157125	1002.997148357725	632.811209898528	248.012504499036	1063.959064610357	544.196068358963	319.148211557959	1051.197058287169	477.078882463904	327.156188546148	1019.750862574620	408.843568224230	315.926976126504	921.691225387777	303.797413128348	261.550900787499	956.281395322099	187.931386202888	333.590167297134	1183.283568566843	438.156673256417	562.835282469103	1136.075282482171	324.921303141174	632.113597273320	1205.648904863151	239.161189961343	579.583316768733	1118.411575088889	47.948694142168	559.565364078411	1279.795827037037	128.816982881782	592.291933350204	1206.044112022148	49.565204379616	629.119594310719	1406.585561050479	97.231393348887	612.025492925184	817.657025895556	38.982216397178	374.163629266629	888.740421267341	35.344102670087	291.276118760901	973.498925834140	95.550811859987	317.361299131257	1100.899225877036	41.383991379753	283.254381905986	1130.812364004270	1091.527427803170	111.129507483573	1362.679656747967	984.679558259829	160.231826491635	927.250168909837	1121.615208214853	696.068808202290	938.601922633100	863.417420130412	732.692917440328	
72	55.048357142857	861.024301591203	1008.189631583454	417.281224837335	1078.609238441355	1430.851278357985	244.924667426063	1154.142267010994	1365.525407156713	420.584605879447	1046.701811430637	1443.926175402718	578.481245246610	1038.828608888746	1496.133985857208	397.351408578076	1075.559723877439	949.913964385505	563.115025275101	1092.303835804785	958.059038541047	287.847030852034	1140.668652302054	760.858199967998	542.768434613032	1081.589689480749	646.204886047242	612.738947342683	1166.602643561255	600.862566064986	534.039846884091	1192.248557004061	523.211778120452	549.497454027363	1103.706433319337	733.361476791097	324.119576276928	1002.146976900713	632.224572227205	249.332602944340	1062.534999976115	543.006264418840	320.096731372719	1049.272983039306	475.801685629374	327.902449238979	1017.161370093970	407.889446317746	316.626500699895	918.053456446094	303.816650562707	262.096158318235	951.708455664843	187.456148080715	333.741218919072	1180.406097848669	435.152588931079	562.402817416596	1132.361566610781	321.651779143812	630.251369751440	1202.174690090833	236.190473849575	577.681283458766	1114.534530931726	46.348580175437	555.762588958675	1276.166000566088	125.186066091467	589.684107023655	1201.520101771914	47.089367394256	625.926533820103	1402.386877607835	92.348490024746	610.138385451121	812.262810849171	38.899045927053	374.148539396981	883.355346730556	35.272154266195	291.286293767331	968.118006980585	95.496760362160	317.363447319695	1095.528675229621	41.234967610681	283.223819570819	1132.542474971746	1090.407568858843	114.388681784176	1364.906875982172	985.155314288992	164.525469607577	928.444215401930	1119.912133882805	696.699165557671	941.723454061803	861.457848220457	731.753351534578	
73	55.061714285714	863.032625608576	1006.709804605970	419.915037575014	1078.508019527442	1429.918142140193	247.132401221454	1154.693283029342	1364.974339520054	422.648779904151	1047.254440580439	1442.923741549773	580.802959674909	1038.941698400805	1495.134732546189	399.585034837918	1077.841714654800	948.603671078592	565.271616434940	1094.053545890205	957.197139925491	290.007669088101	1141.904909114736	758.462013939209	545.028296603809	1080.639806122742	643.445066966705	613.049048534995	1166.130298256535	598.439973636779	534.945185510521	1189.914164213421	520.369371762207	549.231519717581	1104.193489192506	731.957661161498	325.534107999810	1001.487782788488	631.560612191601	250.826895935556	1061.472981579485	541.753484921458	321.095316084482	1047.784617317303	474.375161092285	328.698066361746	1014.857916701394	406.824465833794	317.410256839295	914.557879142850	303.854554687514	262.755256553379	947.205768422314	186.929628698112	333.918190918127	1177.732388239909	431.836006056738	561.681373779989	1128.151121160186	318.441383861223	628.207099780934	1197.411675872574	232.795777062856	575.500954689630	1107.845350202278	45.191632190475	552.071418447123	1270.336021647075	120.814101303756	586.725818005250	1194.266689055770	44.696298185798	622.782141829711	1395.788281143128	85.836402242066	607.912496042139	806.854023186714	38.787337919268	374.125646605634	877.975418209435	35.170829083037	291.305908939468	962.745792837771	95.427858048405	317.363198503066	1090.177984517248	41.081662353815	283.179502125045	1133.651908130621	1089.104436598162	117.821099681415	1366.407321787210	984.970664008718	168.664061471968	930.179526109834	1117.961658586948	697.673480593379	945.941973796939	859.278549827614	731.010642774182	
74	55.075071428571	865.170101315232	1005.143758332772	422.804457376821	1078.301682518459	1428.946663148592	249.537929136623	1155.261245669352	1364.436976936032	424.884859356028	1047.853453807764	1441.871470170094	583.354935009425	1039.017214570955	1494.102552267942	402.047839163711	1080.403977266631	947.298634574852	567.545630233257	1095.862516900823	956.319051499391	292.326936038394	1143.769887634275	756.280908695198	547.130057217731	1080.384128842200	640.828928230300	613.201197037686	1166.402919137895	596.229542317024	535.714298786545	1188.208552405761	517.419890508463	548.742325531927	1104.956501348126	730.545725694673	326.893760507251	1001.043350289598	630.831841390878	252.491807620509	1060.820056782732	540.455663025333	322.137534641193	1046.799687214300	472.803230220958	329.531044990473	1012.890610437805	405.659546714135	318.274179909082	911.241904822291	303.938270064319	263.534773579298	942.801183270151	186.372596316053	334.122054665781	1175.340047987334	428.359407972535	560.745577853042	1123.820348752691	315.354782777225	626.186864930874	1191.856568612925	229.144341841170	573.181708380921	1099.213099426924	44.340047424340	548.764421300750	1263.009339785679	116.053013690634	583.556107104474	1185.219184242605	42.491107688468	619.895467492320	1387.624716212022	78.400532742427	605.409132040234	801.436885849447	38.694962181500	374.088296792324	872.608656084728	35.058530759815	291.331694587135	957.406138637314	95.346007474356	317.352856860038	1084.857359905696	40.919461377545	283.116372946971	1134.141349634776	1087.642959971612	121.406778151460	1367.173233868445	984.099938022033	172.602232197217	932.448220782421	1115.813708946299	699.034402225909	951.223292417169	856.940904894908	730.504830747733	
75	55.088428571429	867.390037248201	1003.556684072127	425.907576395956	1078.026816952392	1427.983210592769	252.143340790962	1155.866191814899	1363.932786182606	427.293658959859	1048.528231927894	1440.801169201259	586.138110529816	1039.095605477861	1493.085042366636	404.746778517909	1083.190221422563	946.055805412339	569.912365385270	1097.686037410300	955.454020376956	294.783653443200	1146.121278098672	754.303511764157	549.035856762041	1080.774481989916	638.454920885158	613.302237440888	1167.246134094598	594.245609871401	536.335153859249	1187.046376196774	514.485029735882	548.086010309996	1106.007983553392	729.178072905697	328.192901431926	1000.856261328990	630.060706368456	254.321751129516	1060.640924913384	539.143249348925	323.222947088761	1046.401335590725	471.101643110992	330.388287918780	1011.326465897680	404.418101201060	319.209097968695	908.159908834113	304.112507259896	264.434690572137	938.539122131777	185.824351996862	334.348330193590	1173.297019310240	424.908792817316	559.706008501513	1119.724002844980	312.489092117679	624.394960221214	1186.009907470959	225.455004188673	570.883038396159	1089.550117233648	43.700038595003	546.036202791421	1254.894035214145	111.307753095766	580.360300964569	1175.316025318045	40.585897894411	617.434854124478	1378.714870035659	70.801186639549	602.773322470989	796.025579057564	38.706614731351	374.028022293304	867.267179924609	34.973839855785	291.357739786546	952.135515096841	95.260223037299	317.319363556618	1079.576705396818	40.742046202767	283.029277473298	1134.021521979700	1086.067802344423	125.131759049057	1367.188453007855	982.515579918556	176.294746471474	935.251116497741	1113.529950924235	700.810053672219	957.526798004486	854.522027450023	730.270935195417	
